# xmcd
#
# Track frame offsets: 
#        150
#        28630
#        52397
#        81972
#        102779
#        129484
#        146969
#        172322
#        195629
#        219232
#
# Disc length: 3224 seconds
#
# Revision: 0
# Processed by: cddbd v1.5.2PL0 Copyright (c) Steve Scherf et al.
# Submitted via: ExactAudioCopyFreeDBPlugin 1.0
#
DISCID=980c960a
DTITLE=VAN MORISON - THE HEALING GAME
DYEAR=1900
DGENRE=Blues
TTITLE0=ROUGH GOD GOES RIDING
TTITLE1=FIRE IN THE BELLY
TTITLE2=THIS WEIGHT
TTITLE3=WAITIHG GAME
TTITLE4=PIPER AT THE GATES OF DAWN
TTITLE5=BURNING gRUND
TTITLE6=IT ONCE WAS MY LIFE
TTITLE7=SOMETIMES WE CRY
TTITLE8=IF YOU LOVE ME
TTITLE9=THE HEALING GAME
EXTD=
EXTT0=
EXTT1=
EXTT2=
EXTT3=
EXTT4=
EXTT5=
EXTT6=
EXTT7=
EXTT8=
EXTT9=
PLAYORDER=
